<svg width="400" height="112" viewBox="0 0 400 112" fill="none" xmlns="http://www.w3.org/2000/svg">
<path d="M20.5879 0.393351C12.4058 3.76687 3.40054 13.2983 0.557031 25.262C-3.04307 40.4202 11.9381 46.8306 13.167 44.7285C14.613 42.2589 10.4825 41.4235 9.63152 33.5588C8.5325 23.4009 13.3296 12.0498 19.3671 7.06979C20.4894 6.145 20.4358 7.43275 20.4358 9.81436L20.197 60.2954C20.197 71.0946 19.7439 74.5055 18.9303 77.8745C18.1055 81.2893 16.7802 83.5973 17.7848 84.4853C18.907 85.4797 23.6991 83.1145 26.4719 79.3035C29.7982 74.7327 30.9619 69.2436 31.1715 63.2821C31.424 56.096 31.4139 44.6932 31.424 38.1883L31.323 4.25413C31.2725 1.67862 24.0157 -1.02368 20.5914 0.388378M311.32 50.9306C311.056 56.545 309.794 60.9328 308.227 64.0284C305.194 70.0207 298.9 71.8812 296.228 63.2677C294.771 58.5721 294.703 50.7302 295.75 44.1776C296.811 37.5026 299.792 32.461 304.72 32.9159C309.58 33.3654 311.856 39.5307 311.32 50.9311L311.32 50.9306ZM229.376 85.7641C229.311 95.0927 227.819 103.272 224.621 105.652C220.086 109.021 213.989 106.494 215.251 99.6868C216.368 93.6632 221.65 87.5118 229.389 79.9956L229.377 85.7691L229.376 85.7641ZM228.137 50.8779C227.86 55.9911 226.514 61.1282 225.044 64.0309C222.012 70.0232 215.672 71.8966 213.045 63.2702C211.249 57.3758 211.679 49.7472 212.568 44.9408C213.721 38.7043 216.517 32.9184 221.538 32.9184C226.419 32.9184 228.826 38.1902 228.138 50.8784L228.137 50.8779ZM180.67 50.7998C180.372 56.2153 179.299 60.7429 177.577 64.0304C174.461 69.9819 168.296 71.8688 165.578 63.2697C163.618 57.0685 164.285 48.6136 165.1 44.0463C166.31 37.2684 169.34 32.463 174.07 32.9189C178.929 33.3863 181.291 39.5332 180.67 50.8008L180.67 50.7998ZM398.204 57.1252C397.016 57.1252 396.474 58.3305 396.026 60.359C394.471 67.4129 392.836 69.0104 390.723 69.0104C388.368 69.0104 386.252 65.5175 385.708 58.5258C385.28 53.0283 385.349 42.9067 385.896 32.8388C386.007 30.7705 385.427 28.7235 379.791 26.7083C377.366 25.8412 373.841 24.5654 372.086 28.7359C367.126 40.5196 365.186 49.8755 364.729 53.6756C364.706 53.8725 364.461 53.9123 364.418 53.4529C364.127 50.409 363.476 44.8776 363.396 33.2555C363.38 30.9883 362.892 29.0581 360.35 27.478C358.7 26.4528 353.691 24.639 351.888 26.7968C350.325 28.5619 348.515 33.3102 346.635 38.9385L344.042 46.6079L344.08 29.5822C344.088 27.8156 342.858 27.2274 342.487 27.121C340.817 26.6437 337.526 25.8462 336.123 25.8462C334.399 25.8462 333.978 26.7948 333.978 28.1766L333.705 55.6654L333.71 57.2515C332.756 62.4165 329.664 69.428 326.302 69.428C322.936 69.428 321.352 66.497 321.352 53.0999C321.352 45.2848 321.591 41.8864 321.708 36.2347L321.9 29.9113C321.875 28.1711 318.819 27.2945 317.397 26.9703C315.967 26.6437 314.727 26.5169 313.757 26.5711C312.385 26.6472 311.413 27.5337 311.413 28.7523L311.421 30.6487C309.653 27.914 306.811 26.0117 304.92 25.4603C299.826 23.9712 294.51 25.2913 290.5 30.8137C287.313 35.202 285.392 40.1726 284.641 47.3139C284.089 52.5346 284.269 57.8288 285.252 62.3061C284.065 67.3577 281.861 69.428 279.448 69.428C275.945 69.428 273.406 63.7997 273.701 54.0644C273.895 47.6615 275.197 43.1677 276.62 36.6673C277.226 33.8959 276.734 32.4451 275.498 31.0549C274.364 29.7795 271.948 29.1282 268.475 29.9297C266.002 30.5015 262.465 31.1155 259.229 31.5874C259.229 31.5874 259.425 30.8207 259.585 29.4683C260.426 22.3782 252.6 22.953 250.102 25.2172C248.612 26.5696 247.597 28.1641 247.212 31.0315C246.6 35.5819 250.371 37.7278 250.371 37.7278C249.133 43.2965 246.102 50.5825 242.972 55.8459C241.295 58.6661 240.012 60.7563 238.357 62.9778L238.343 60.5002L238.534 36.2367L238.727 29.9799C238.708 28.7071 237.953 28.2268 236.384 27.6182C234.995 27.0802 233.353 26.7073 231.651 26.5776C229.502 26.4125 228.207 27.5347 228.241 28.8617C228.247 29.1123 228.247 30.6506 228.247 30.6506C226.48 27.916 223.637 26.0137 221.746 25.4623C216.652 23.9737 211.337 25.2933 207.327 30.8157C204.141 35.204 202.054 41.3624 201.468 47.2612C200.912 52.7593 201.018 57.4315 201.769 61.3669C200.959 65.3082 198.631 69.4295 195.998 69.4295C192.631 69.4295 190.716 66.4985 190.716 53.1014C190.716 45.2863 190.954 41.8879 191.071 36.2362L191.263 29.9128C191.238 28.1726 188.182 27.296 186.76 26.9713C185.272 26.6332 183.982 26.508 183.001 26.5795C181.699 26.675 180.784 27.8226 180.784 28.6777V30.6497C179.016 27.915 176.174 26.0127 174.282 25.4613C169.188 23.9727 163.902 25.3137 159.863 30.8147C157.229 34.402 155.097 38.3787 154.004 47.1827C153.687 49.7268 153.547 52.1089 153.565 54.3359C152.514 60.6593 147.876 67.9473 144.081 67.9473C141.86 67.9473 139.745 63.7072 139.745 54.671C139.745 42.6337 140.502 25.4966 140.63 23.8444L146.352 23.7534C148.744 23.7276 150.91 23.7833 154.095 23.6227C155.692 23.5431 157.231 17.8979 155.583 17.1988C154.835 16.8826 149.553 16.6057 147.459 16.5624C145.699 16.5226 140.798 16.1661 140.798 16.1661L141.34 3.58937C141.426 2.58801 140.11 2.0729 139.355 1.75966C137.519 0.995463 135.877 0.629523 133.93 0.234743C131.241 -0.311186 130.021 0.222809 129.783 2.45724C129.429 5.84817 129.237 15.7803 129.237 15.7803C127.264 15.7803 120.523 15.4004 118.549 15.4004C116.716 15.4004 114.736 23.1653 117.271 23.2612L128.643 23.5695L128.499 48.0254C126.644 57.5434 120.11 62.6849 120.11 62.6849C121.513 56.3884 118.647 51.66 113.484 47.657C111.582 46.1818 107.827 43.3895 103.625 40.3297C103.625 40.3297 106.058 37.969 108.221 33.2197C109.75 29.8551 109.816 26.0053 106.063 25.1561C99.8622 23.7525 94.75 28.2352 93.2247 33.0218C92.0428 36.7295 92.6731 39.4805 94.9873 42.3394C95.1565 42.5482 95.3394 42.762 95.5288 42.9758C94.1287 45.6319 92.2054 49.2078 90.5776 51.9802C86.0573 59.6794 82.6421 65.7691 80.0622 65.7691C77.999 65.7691 78.0268 59.5864 78.0268 53.7974C78.0268 48.807 78.4005 41.3042 78.7 33.5364C78.799 30.9674 77.4939 29.5041 75.306 28.1781C73.9777 27.3726 71.1402 25.7895 69.4978 25.7895C67.0381 25.7895 59.9445 26.1186 53.2413 45.2073C52.3963 47.6137 50.7362 51.9971 50.7362 51.9971L50.8791 29.0427C50.8791 28.5047 50.5882 27.9837 49.921 27.6282C48.7917 27.0245 45.7795 25.7895 43.0925 25.7895C41.8147 25.7895 41.1763 26.3747 41.1763 27.5411L40.9425 63.4541C40.9425 66.1828 41.0147 69.3708 41.2889 70.758C41.5632 72.1452 42.0041 73.2858 42.5516 73.96C43.0991 74.6342 43.7314 75.1473 44.7749 75.3592C45.7461 75.556 51.0629 76.2283 51.3397 74.228C51.671 71.8315 51.6831 69.2376 54.4761 59.5675C58.8227 44.5122 64.4901 37.166 67.1543 34.5572C67.6199 34.1012 68.1518 34.0739 68.1265 34.8207L67.3437 53.3763C66.6214 72.1283 70.0872 75.6043 75.0393 75.6043C78.8273 75.6043 84.1683 71.8986 89.8882 62.5179L99.4127 46.8088L105.041 51.9101C109.562 56.1348 111.047 60.1497 110.062 63.9573C109.308 66.8689 106.471 69.874 101.422 66.9529C99.9501 66.1027 99.3218 65.4449 97.842 64.4853C97.047 63.9702 95.8328 63.8161 95.1045 64.3561C93.2141 65.7592 92.1327 67.5441 91.515 69.7542C90.914 71.9046 93.1019 73.0407 95.3697 74.0301C97.3222 74.8853 101.519 75.661 104.195 75.7495C114.623 76.0975 122.976 70.7924 128.792 57.1217C129.832 68.9283 134.263 75.6097 141.96 75.6097C147.106 75.6097 152.265 69.0616 154.521 62.6198C155.168 65.2451 156.127 67.5292 157.365 69.4598C163.296 78.7108 174.802 76.719 180.582 68.8642C182.368 66.4368 182.641 65.5648 182.641 65.5648C183.484 72.982 189.551 75.5734 193.025 75.5734C196.916 75.5734 200.933 73.7626 203.749 67.5222C204.079 68.1994 204.439 68.8463 204.832 69.4593C210.763 78.7103 222.269 76.7185 228.048 68.8637C228.293 68.5334 228.531 68.1991 228.764 67.8608L228.934 72.7334L223.613 77.5374C214.705 85.5821 207.932 91.6863 207.434 98.7943C206.794 107.858 214.261 111.226 219.91 111.667C225.909 112.136 231.047 108.873 234.203 104.308C236.981 100.29 238.798 91.6406 238.665 83.0986L238.455 70.6666C241.587 67.0867 245.114 62.5636 248.362 57.2684C251.901 51.4979 255.695 43.7485 257.637 37.7174C257.637 37.7174 260.932 37.7452 264.45 37.5185C265.575 37.4464 265.898 37.6727 265.69 38.4841C265.439 39.4651 261.247 55.384 265.073 65.9894C267.692 73.2485 273.596 75.5854 277.096 75.5854C281.194 75.5854 285.114 72.539 287.214 68.0155C287.467 68.5196 287.732 69.0079 288.021 69.4583C293.952 78.7093 305.417 76.7061 311.237 68.8627C312.55 67.0927 313.296 65.5633 313.296 65.5633C314.545 73.2401 320.61 75.6117 324.083 75.6117C327.701 75.6117 331.135 74.1515 333.921 67.6615C334.038 70.5189 334.221 72.8552 334.51 73.5916C334.687 74.0421 335.715 74.6074 336.463 74.8808C339.773 76.0891 343.148 75.5173 344.392 75.2687C345.258 75.0961 345.933 74.4135 346.024 72.6484C346.266 68.0155 346.117 60.2313 347.539 54.4458C349.934 44.7369 352.168 40.9716 353.228 39.1071C353.821 38.063 354.49 37.8899 354.514 38.9957C354.565 41.2331 354.678 47.8012 355.605 56.628C356.287 63.119 357.196 66.9559 357.896 68.1701C359.893 71.6426 362.358 71.8071 364.361 71.8071C365.639 71.8071 368.309 71.4591 368.07 69.25C367.954 68.1731 368.158 61.5165 370.519 51.9513C372.061 45.705 374.631 40.0612 375.558 37.9978C375.9 37.2371 376.059 37.8367 376.053 37.9531C375.858 42.2549 375.42 56.3247 377.2 64.0199C379.613 74.4448 386.594 75.6112 389.026 75.6112C394.219 75.6112 398.466 71.7231 399.897 61.4907C400.242 59.028 399.731 57.1267 398.203 57.1267" fill="url(#paint0_linear_7610_2876)"/>
<defs>
<linearGradient id="paint0_linear_7610_2876" x1="0" y1="55.8559" x2="400" y2="55.8559" gradientUnits="userSpaceOnUse">
<stop stop-color="#FF9600"/>
<stop offset="0.5" stop-color="#E12A49"/>
<stop offset="1" stop-color="#7B3FE4"/>
</linearGradient>
</defs>
</svg>
