<svg width="400" height="90" viewBox="0 0 400 90" fill="none" xmlns="http://www.w3.org/2000/svg">
<path d="M285.291 89.6722C305.571 89.6722 322.021 73.3007 322.021 53.1076C322.021 32.9145 305.571 16.543 285.291 16.543H279.757C300.038 16.543 316.488 32.9145 316.488 53.1076C316.488 73.3007 300.038 89.6722 279.757 89.6722H285.291Z" fill="#FF004F"/>
<path d="M279.25 16.5322H273.717C253.436 16.5322 236.986 32.9038 236.986 53.0969C236.986 73.29 253.436 89.6615 273.717 89.6615H279.25C258.958 89.6615 242.519 73.29 242.519 53.0969C242.519 32.9038 258.969 16.5322 279.25 16.5322Z" fill="#00F2EA"/>
<path d="M0 0.011548V18.5421H21.6266V89.166H43.2647V19.0386H60.8766L66.9159 0H0V0.011548ZM177.108 0.011548V18.5421H198.735V89.166H220.373V19.0386H237.985L244.024 0H177.108V0.011548ZM70.9421 10.5295C70.9421 4.72212 75.6701 0.011548 81.5024 0.011548C87.3346 0.011548 92.0741 4.72212 92.0741 10.5295C92.0741 16.3369 87.3461 21.0475 81.5024 21.0475C75.6701 21.0475 70.9421 16.3369 70.9421 10.5295ZM70.9421 28.5636H92.0626V89.1775H70.9421V28.5636ZM101.127 0.011548V89.1775H122.259V66.1327L128.805 60.1175L149.431 89.674H172.069L142.379 46.5977L169.044 20.551H143.38L122.248 41.5869V0.011548H101.116H101.127ZM329.058 0.011548V89.1775H350.19V66.1327L356.724 60.1175L377.361 89.674H400L370.309 46.5977L396.975 20.551H371.31L350.178 41.5869V0.011548H329.046H329.058Z" fill="white"/>
<path d="M279.756 89.6722C300.037 89.6722 316.487 73.3007 316.487 53.1076C316.487 32.9145 300.037 16.543 279.756 16.543H279.25C258.97 16.543 242.52 32.9145 242.52 53.1076C242.52 73.3007 258.97 89.6722 279.25 89.6722H279.756ZM261.638 53.1076C261.638 43.2824 269.645 35.3275 279.503 35.3275C289.362 35.3275 297.368 43.2824 297.368 53.1076C297.368 62.9328 289.373 70.8877 279.503 70.8877C269.633 70.8877 261.638 62.9213 261.638 53.1076Z" fill="white"/>
</svg>
